<svg width="20" height="21" viewBox="0 0 20 21" fill="none" xmlns="http://www.w3.org/2000/svg">
<path d="M13.5 8L9.25 13.5L7.5 11M19 10.5C19 11.768 18.37 12.89 17.407 13.568C17.5108 14.1608 17.4701 14.7698 17.2886 15.3436C17.107 15.9173 16.7899 16.4388 16.364 16.864C15.9388 17.2899 15.4173 17.607 14.8436 17.7886C14.2698 17.9701 13.6608 18.0108 13.068 17.907C12.7222 18.3995 12.2629 18.8014 11.7288 19.0787C11.1948 19.356 10.6017 19.5005 10 19.5C8.732 19.5 7.61 18.87 6.932 17.907C6.33923 18.0107 5.73021 17.97 5.15649 17.7885C4.58276 17.6069 4.06122 17.2898 3.636 16.864C3.21012 16.4388 2.89298 15.9173 2.71142 15.3436C2.52987 14.7698 2.48924 14.1608 2.593 13.568C2.10052 13.2222 1.69862 12.7629 1.42133 12.2288C1.14403 11.6948 0.99951 11.1017 1 10.5C1 9.232 1.63 8.11 2.593 7.432C2.48924 6.83923 2.52987 6.23019 2.71142 5.65645C2.89298 5.08271 3.21012 4.56117 3.636 4.136C4.06122 3.71019 4.58276 3.3931 5.15649 3.21154C5.73021 3.02999 6.33923 2.98933 6.932 3.093C7.27784 2.60058 7.73722 2.19873 8.27126 1.92144C8.80529 1.64415 9.39827 1.49959 10 1.5C11.268 1.5 12.39 2.13 13.068 3.093C13.6608 2.98933 14.2698 3.02999 14.8435 3.21154C15.4172 3.3931 15.9388 3.71019 16.364 4.136C16.7898 4.56122 17.1069 5.08276 17.2885 5.65649C17.47 6.23021 17.5107 6.83923 17.407 7.432C17.8995 7.77779 18.3014 8.23715 18.5787 8.7712C18.856 9.30525 19.0005 9.89825 19 10.5Z" fill="#076DE6"/>
<path d="M13.5 8L9.25 13.5L7.5 11M19 10.5C19 11.768 18.37 12.89 17.407 13.568C17.5108 14.1608 17.4701 14.7698 17.2886 15.3436C17.107 15.9173 16.7899 16.4388 16.364 16.864C15.9388 17.2899 15.4173 17.607 14.8436 17.7886C14.2698 17.9701 13.6608 18.0108 13.068 17.907C12.7222 18.3995 12.2629 18.8014 11.7288 19.0787C11.1948 19.356 10.6017 19.5005 10 19.5C8.732 19.5 7.61 18.87 6.932 17.907C6.33923 18.0107 5.73021 17.97 5.15649 17.7885C4.58276 17.6069 4.06122 17.2898 3.636 16.864C3.21012 16.4388 2.89298 15.9173 2.71142 15.3436C2.52987 14.7698 2.48924 14.1608 2.593 13.568C2.10052 13.2222 1.69862 12.7629 1.42133 12.2288C1.14403 11.6948 0.99951 11.1017 1 10.5C1 9.232 1.63 8.11 2.593 7.432C2.48924 6.83923 2.52987 6.23019 2.71142 5.65645C2.89298 5.08271 3.21012 4.56117 3.636 4.136C4.06122 3.71019 4.58276 3.3931 5.15649 3.21154C5.73021 3.02999 6.33923 2.98933 6.932 3.093C7.27784 2.60058 7.73722 2.19873 8.27126 1.92144C8.80529 1.64415 9.39827 1.49959 10 1.5C11.268 1.5 12.39 2.13 13.068 3.093C13.6608 2.98933 14.2698 3.02999 14.8435 3.21154C15.4172 3.3931 15.9388 3.71019 16.364 4.136C16.7898 4.56122 17.1069 5.08276 17.2885 5.65649C17.47 6.23021 17.5107 6.83923 17.407 7.432C17.8995 7.77779 18.3014 8.23715 18.5787 8.7712C18.856 9.30525 19.0005 9.89825 19 10.5Z" stroke="white" stroke-width="1.5" stroke-linecap="round" stroke-linejoin="round"/>
</svg>
